<svg width="512" height="512" viewBox="0 0 512 512" fill="none" xmlns="http://www.w3.org/2000/svg">
<path d="M195.857 120.027C195.857 104.298 202.141 89.2136 213.326 78.0918C224.511 66.97 239.682 60.7219 255.5 60.7219C271.318 60.7219 286.489 66.97 297.674 78.0918C308.859 89.2136 315.143 104.298 315.143 120.027V153H339V120.027C339 109.123 336.84 98.3269 332.644 88.2537C328.448 78.1804 322.297 69.0277 314.543 61.3179C306.79 53.6082 297.585 47.4925 287.454 43.32C277.323 39.1475 266.465 37 255.5 37C244.535 37 233.677 39.1475 223.546 43.32C213.415 47.4925 204.21 53.6082 196.457 61.3179C188.703 69.0277 182.552 78.1804 178.356 88.2537C174.16 98.3269 172 109.123 172 120.027V153H195.857V120.027Z" fill="#FF8DD3"/>
<path d="M338.75 153V189.918C338.75 193.077 337.497 196.106 335.267 198.339C333.036 200.573 330.011 201.827 326.857 201.827C323.703 201.827 320.678 200.573 318.448 198.339C316.217 196.106 314.964 193.077 314.964 189.918V153H196.036V189.918C196.036 193.077 194.783 196.106 192.552 198.339C190.322 200.573 187.297 201.827 184.143 201.827C180.989 201.827 177.964 200.573 175.733 198.339C173.503 196.106 172.25 193.077 172.25 189.918V153H89V391.182C89 397.499 91.506 403.557 95.9667 408.024C100.427 412.491 106.477 415 112.786 415H398.214C404.523 415 410.573 412.491 415.033 408.024C419.494 403.557 422 397.499 422 391.182V153H338.75Z" fill="#FF8DD3"/>
</svg>
