<svg width="512" height="512" viewBox="0 0 512 512" fill="none" xmlns="http://www.w3.org/2000/svg">
<g clip-path="url(#clip0_223_18)">
<path d="M174.817 112.723C174.817 91.3461 183.309 70.8443 198.426 55.7283C213.542 40.6122 234.043 32.1201 255.421 32.1201C276.798 32.1201 297.3 40.6122 312.416 55.7283C327.532 70.8443 336.024 91.3461 336.024 112.723V157.539H368.265V112.723C368.265 97.9045 365.347 83.2306 359.676 69.5397C354.005 55.8487 345.692 43.4088 335.214 32.9302C324.735 22.4516 312.295 14.1395 298.604 8.46857C284.914 2.7976 270.24 -0.121216 255.421 -0.121216C240.602 -0.121216 225.928 2.7976 212.237 8.46857C198.546 14.1395 186.106 22.4516 175.627 32.9302C165.149 43.4088 156.837 55.8487 151.166 69.5397C145.495 83.2306 142.576 97.9045 142.576 112.723V157.539H174.817V112.723Z" fill="#FF8DD3"/>
<path d="M368.265 157.538V207.512C368.265 211.787 366.567 215.888 363.544 218.911C360.52 221.934 356.42 223.633 352.145 223.633C347.869 223.633 343.769 221.934 340.746 218.911C337.722 215.888 336.024 211.787 336.024 207.512V157.538H174.817V207.512C174.817 211.787 173.119 215.888 170.096 218.911C167.072 221.934 162.972 223.633 158.697 223.633C154.421 223.633 150.321 221.934 147.298 218.911C144.274 215.888 142.576 211.787 142.576 207.512V157.538H29.7313V479.951C29.7313 488.502 33.1282 496.703 39.1746 502.749C45.221 508.796 53.4217 512.192 61.9726 512.192H448.869C457.419 512.192 465.62 508.796 471.667 502.749C477.713 496.703 481.11 488.502 481.11 479.951V157.538H368.265Z" fill="#FF8DD3"/>
</g>
<defs>
<clipPath id="clip0_223_18">
<rect width="512" height="512" fill="white"/>
</clipPath>
</defs>
</svg>
